<svg xmlns="http://www.w3.org/2000/svg" width="43" height="40" xmlns:v="https://vecta.io/nano"><path fill="#fff" d="M18.735 11.223c1.835 3.777 3.41 7.813 4.755 11.77-.49.026-.982.052-1.473.052-2.56 0-5.117-.077-7.675-.104zM0 40c1.628 0 3.23-.08 4.858-.365.362-.052.88-.208 1.24-.208 2.998 0 6.022.52 9.02.52.025-.234.05-.468.05-.703 0-.52 0-1.015-.025-1.5-1.473-.208-5.272-.287-5.272-2.292 0-1 2.6-7.812 3.282-9.323l11.63.053c.413 1.067 3.747 8.802 3.747 9.74 0 .964-1.37 1.146-2.067 1.302l-3.386.73a17.824 17.824 0 0 0-.103 2.03c3.385-.104 6.77-.4 10.156-.4 3.28 0 6.563.417 9.845.417 0-.235.026-.443.026-.678 0-.494-.078-.99-.155-1.484-1.215-.47-3.592-.625-4.445-1.302-.362-.286-.723-1.068-.904-1.484-1.292-2.656-2.197-5.443-3.36-8.15-1.964-4.584-3.747-9.245-5.685-13.855L23.154.546c-.078-.18-.18-.363-.284-.546h-3.308l-7.236 18.855-6.124 16.04c-1.085 2.813-3.72 2.292-6.15 3.047z"/></svg>