<svg xmlns="http://www.w3.org/2000/svg" width="53" height="40" xmlns:v="https://vecta.io/nano"><path fill="#c0301c" d="M15.155 34.174a.921.921 0 0 1-1.328 0L.375 20.666a.93.93 0 0 1 0-1.333L13.827 5.826a.922.922 0 0 1 1.328 0l1.445 1.45a.93.93 0 0 1 0 1.333L5.254 20 16.6 31.4a.93.93 0 0 1 0 1.334zm7.737 5.043c-.145.493-.664.783-1.126.637l-1.8-.492a.94.94 0 0 1-.635-1.16L30.108.783C30.253.3 30.772 0 31.234.145l1.8.494a.94.94 0 0 1 .635 1.159zm16.28-5.043a.921.921 0 0 1-1.327 0l-1.444-1.45a.93.93 0 0 1 0-1.333L47.746 20 36.4 8.608a.93.93 0 0 1 0-1.333l1.444-1.45a.922.922 0 0 1 1.328 0l13.452 13.508a.93.93 0 0 1 0 1.333z"/></svg>