<svg xmlns="http://www.w3.org/2000/svg" width="15" height="11" xmlns:v="https://vecta.io/nano"><path fill="#555" d="M13.928 9.75c0 .133-.125.25-.267.25H1.34c-.142 0-.268-.117-.268-.25v-6a4.44 4.44 0 0 0 .578.515 113.03 113.03 0 0 1 3.566 2.641C5.843 7.398 6.62 8 7.492 8h.016c.87 0 1.65-.6 2.277-1.093a113.177 113.177 0 0 1 3.566-2.64c.2-.157.402-.33.578-.516zm0-8.212c0 .665-.686 1.532-1.23 1.93L9.34 5.945C8.898 6.28 8.094 7 7.508 7h-.016c-.586 0-1.4-.72-1.834-1.055a520.925 520.925 0 0 0-3.356-2.477c-.754-.554-1.23-1.328-1.23-2.218 0-.133.125-.25.267-.25H13.66c.318 0 .268.343.268.538zM15 1.25C15 .562 14.397 0 13.66 0H1.34C.602 0 0 .56 0 1.25v8.5C0 10.437.603 11 1.34 11h12.32c.737 0 1.34-.563 1.34-1.25z"/></svg>