<svg xmlns="http://www.w3.org/2000/svg" width="26" height="26" viewBox="0 0 26 26"><path fill-rule="evenodd" d="M 13 0 C 5.8262206 0 -2.3684758e-015 5.8262021 0 13 C 0 20.173798 5.8262206 26 13 26 C 20.173779 26 26 20.173798 26 13 C 26 5.8262021 20.173779 0 13 0 z M 13 1 C 19.633339 1 25 6.366663 25 13 C 25 19.633337 19.633339 25 13 25 C 6.3666607 25 1 19.633337 1 13 C 1 6.366663 6.3666607 1 13 1 z M 10.699219 8 L 10 8.6601562 L 14.599609 13 L 10 17.339844 L 10.699219 18 L 16 13 L 10.699219 8 z " color="#000" font-family="sans-serif" font-weight="400" overflow="visible" white-space="normal" style="line-height:normal;text-indent:0;text-align:start;text-decoration-line:none;text-decoration-style:solid;text-decoration-color:#000;text-transform:none;block-progression:tb;isolation:auto;mix-blend-mode:normal"/></svg>